<svg width="41" height="41" viewBox="0 0 41 41" fill="none" xmlns="http://www.w3.org/2000/svg">
<g clip-path="url(#clip0_1_459)">
<path d="M8.18582 20.7945C6.68963 20.7945 5.47698 21.8161 5.47698 23.0762V24.3515H5.43606C3.27639 24.3515 1.52545 25.8264 1.52545 27.6454V32.0634C1.52545 33.8829 3.27632 35.3576 5.43606 35.3576H5.47698V36.6329C5.47698 37.8932 6.68955 38.9146 8.18582 38.9146C9.68178 38.9146 10.8945 37.8932 10.8945 36.6329V23.0762C10.8945 21.8161 9.68178 20.7945 8.18582 20.7945Z" fill="#FED304"/>
<path d="M35.6774 24.3515H35.6365V23.0762C35.6365 21.816 34.4239 20.7945 32.9277 20.7945C31.4317 20.7945 30.219 21.8161 30.219 23.0762V36.6329C30.219 37.8932 31.4317 38.9146 32.9277 38.9146C34.4239 38.9146 35.6365 37.8932 35.6365 36.6329V35.3576H35.6774C37.8371 35.3576 39.588 33.8829 39.588 32.0634V27.6454C39.588 25.8263 37.8371 24.3515 35.6774 24.3515Z" fill="#FED304"/>
<path d="M20.5584 1.23027C9.49639 1.23027 0.52887 10.1976 0.52887 21.2596C0.52887 22.17 0.590445 23.0658 0.70804 23.9438C0.849968 23.796 1.00074 23.6543 1.16035 23.5199C1.75529 23.0187 2.44419 22.6329 3.18936 22.3758C3.3618 21.3408 3.91308 20.3795 4.75972 19.6664C4.8022 19.6306 4.84594 19.5963 4.88952 19.5621C5.73639 11.6566 12.428 5.49961 20.5584 5.49961C28.6888 5.49961 35.3804 11.6567 36.2273 19.5621C36.271 19.5964 36.3146 19.6306 36.3571 19.6664C37.2037 20.3796 37.755 21.3409 37.9275 22.3758C38.6726 22.6329 39.3615 23.0187 39.9565 23.5199C40.1161 23.6543 40.2668 23.796 40.4088 23.9438C40.5264 23.0658 40.5879 22.17 40.5879 21.2596C40.5879 10.1977 31.6204 1.23027 20.5584 1.23027Z" fill="#FED304"/>
</g>
<defs>
<clipPath id="clip0_1_459">
<rect width="40.0591" height="40.0591" fill="white" transform="translate(0.52887 0.0443058)"/>
</clipPath>
</defs>
</svg>
