<svg width="93" height="27" viewBox="0 0 93 27" fill="none" xmlns="http://www.w3.org/2000/svg">
<path d="M78.4235 10.5246C76.9902 9.52446 76.2735 8.25684 76.2735 6.71988C76.2735 4.97762 77.0259 3.44913 78.5318 2.13443C80.0368 0.819724 82.2179 0.162372 85.0743 0.162372C87.6415 0.162372 89.6032 0.662449 90.9594 1.6626C92.3146 2.66276 92.9926 4.02455 92.9926 5.7461C92.9926 8.06661 91.7919 9.80416 89.3894 10.9588C91.2664 11.99 92.2044 13.4592 92.2044 15.3672C92.2044 17.4909 91.3125 19.396 89.5288 21.0818C87.7451 22.7676 85.1204 23.6104 81.6566 23.6104C79.0583 23.6104 77.1041 23.0284 75.7941 21.8625C74.4851 20.6976 73.8305 19.187 73.8305 17.3307C73.8305 14.4433 75.3609 12.1755 78.4245 10.5256H78.4235V10.5246ZM82.4147 19.7426C83.5797 19.7426 84.4847 19.299 85.1289 18.4128C85.7731 17.5266 86.0951 16.5001 86.0951 15.3351C86.0951 14.4998 85.8606 13.8839 85.3916 13.4865C84.9226 13.089 84.3529 12.8913 83.6823 12.8913C82.4449 12.8913 81.5144 13.3527 80.89 14.2757C80.2656 15.1986 79.9539 16.1865 79.9539 17.2385C79.9539 18.0013 80.1809 18.6097 80.6339 19.0636C81.0878 19.5175 81.6802 19.7436 82.4128 19.7436H82.4147V19.7426ZM84.4405 9.16282C85.1722 9.16282 85.8117 8.86711 86.3579 8.2738C86.9041 7.68048 87.1782 6.96192 87.1782 6.11621C87.1782 5.41554 86.9823 4.8712 86.5896 4.48413C86.1978 4.09707 85.6619 3.904 84.981 3.904C84.1466 3.904 83.4573 4.19501 82.9167 4.77796C82.3761 5.36092 82.1049 6.06912 82.1049 6.90447C82.1049 7.65788 82.3234 8.222 82.7622 8.5987C83.2002 8.97541 83.7596 9.16282 84.4405 9.16282ZM57.296 10.5246C55.8626 9.52446 55.1459 8.25684 55.1459 6.71988C55.1459 4.97762 55.8984 3.44913 57.4043 2.13443C58.9092 0.819724 61.0903 0.162372 63.9467 0.162372C66.514 0.162372 68.4757 0.662449 69.8318 1.6626C71.187 2.66276 71.8651 4.02455 71.8651 5.7461C71.8651 8.06661 70.6643 9.80416 68.2619 10.9588C70.1388 11.99 71.0768 13.4592 71.0768 15.3672C71.0768 17.4909 70.185 19.396 68.4013 21.0818C66.6176 22.7676 63.9929 23.6104 60.529 23.6104C57.9307 23.6104 55.9766 23.0284 54.6666 21.8625C53.3566 20.6976 52.703 19.187 52.703 17.3307C52.703 14.4433 54.2333 12.1755 57.2969 10.5256H57.296V10.5246ZM61.2862 19.7426C62.4512 19.7426 63.3562 19.299 64.0004 18.4128C64.6446 17.5266 64.9667 16.5001 64.9667 15.3351C64.9667 14.4998 64.7321 13.8839 64.2631 13.4865C63.7941 13.089 63.2244 12.8913 62.5538 12.8913C61.3164 12.8913 60.3859 13.3527 59.7615 14.2757C59.1371 15.1986 58.8254 16.1865 58.8254 17.2385C58.8254 18.0013 59.0524 18.6097 59.5053 19.0636C59.9593 19.5175 60.5516 19.7436 61.2843 19.7436H61.2862V19.7426ZM63.3129 9.16282C64.0447 9.16282 64.6841 8.86711 65.2303 8.2738C65.7766 7.68048 66.0506 6.96192 66.0506 6.11621C66.0506 5.41554 65.8547 4.8712 65.463 4.48413C65.0712 4.09707 64.5353 3.904 63.8544 3.904C63.0191 3.904 62.3306 4.19501 61.7901 4.77796C61.2495 5.36092 60.9783 6.06912 60.9783 6.90447C60.9783 7.65788 61.1968 8.222 61.6356 8.5987C62.0735 8.97541 62.6329 9.16282 63.3138 9.16282H63.3129ZM41.6589 23.0058C40.3282 23.408 38.8383 23.6095 37.1883 23.6095C33.9609 23.6095 31.437 22.7892 29.6175 21.1496C27.7971 19.5109 26.8873 17.2008 26.8873 14.221C26.8873 12.7057 27.1058 11.2149 27.5447 9.75048C27.9826 8.28698 28.6503 6.89693 29.5478 5.58223C30.4444 4.26753 31.55 3.16943 32.8656 2.28794C34.1803 1.40644 35.4696 0.831025 36.7325 0.562622C37.9954 0.295161 39.2875 0.160488 40.6069 0.160488C44.051 0.160488 46.5843 1.07588 48.2089 2.90573C49.8334 4.73653 50.6452 7.02313 50.6452 9.76555C50.6452 11.6321 50.245 13.5684 49.4464 15.5734C48.6468 17.5794 47.3038 19.3546 45.4175 20.9019C46.9846 22.211 47.9998 22.9842 48.4641 23.2215L45.8658 26.8718C44.9372 26.2012 43.5349 24.9129 41.6589 23.0049V23.0058ZM41.1795 16.7883C41.9631 15.8503 42.5922 14.6769 43.0659 13.2689C43.5405 11.8619 43.7779 10.5858 43.7779 9.44158C43.7779 8.29734 43.4172 7.26046 42.6948 6.48727C41.9725 5.71408 41.0251 5.32795 39.8488 5.32795C38.5699 5.32795 37.469 5.79413 36.547 6.72742C35.6241 7.66071 34.9309 8.90854 34.4666 10.4709C34.0023 12.0324 33.7707 13.3603 33.7707 14.4537C33.7707 15.547 34.1088 16.5237 34.784 17.2921C35.4593 18.0606 36.4161 18.4449 37.6536 18.4449L38.4277 18.4138C38.1179 17.9391 37.6517 17.4626 37.0273 16.9832C36.4039 16.5039 35.9838 16.1658 35.7672 15.9699L37.4068 13.6965C38.4889 14.3463 39.7471 15.3775 41.1805 16.7902V16.7883H41.1795ZM0.500943 14.2484V14.1495C0.507535 12.6587 0.726964 11.1914 1.15829 9.75048C1.59621 8.28698 2.26393 6.89693 3.16143 5.58223C4.05799 4.26753 5.16456 3.16943 6.47927 2.28794C7.79397 1.40644 9.0823 0.831025 10.3462 0.562622C11.6091 0.295161 12.9012 0.160488 14.2206 0.160488C17.6646 0.160488 20.1989 1.07588 21.8225 2.90573C23.4461 4.73653 24.2579 7.02313 24.2579 9.76555C24.2579 11.6321 23.8586 13.5684 23.059 15.5734C22.2595 17.5794 20.9165 19.3546 19.0302 20.9019C20.5973 22.211 21.6134 22.9842 22.0768 23.2215L19.4785 26.8718C18.5499 26.2012 17.1476 24.9129 15.2716 23.0049C13.9418 23.407 12.451 23.6086 10.801 23.6086C7.5736 23.6086 5.04967 22.7883 3.23018 21.1487C1.41539 19.5147 0.505651 17.214 0.5 14.2474H0.500943V14.2484ZM14.7932 16.7883C15.5767 15.8503 16.2058 14.6769 16.6795 13.2689C17.1542 11.8619 17.3915 10.5858 17.3915 9.44158C17.3915 8.29734 17.0299 7.26046 16.3085 6.48727C15.5861 5.71408 14.6378 5.32795 13.4625 5.32795C12.1835 5.32795 11.0826 5.79413 10.1606 6.72742C9.23675 7.66071 8.54361 8.90854 8.08027 10.4709C7.61598 12.0324 7.3843 13.3603 7.3843 14.4537C7.3843 15.547 7.72145 16.5237 8.39764 17.2921C9.07289 18.0606 10.0297 18.4449 11.2672 18.4449L12.0404 18.4138C11.7315 17.9391 11.2644 17.4626 10.6409 16.9832C10.0165 16.5039 9.59651 16.1658 9.38084 15.9699L11.0195 13.6965C12.1025 14.3463 13.3607 15.3775 14.7941 16.7902V16.7883H14.7932Z" fill="#FED304"/>
</svg>
