<svg width="252" height="77" viewBox="0 0 252 77" fill="none" xmlns="http://www.w3.org/2000/svg">
<mask id="mask0_1_438" style="mask-type:luminance" maskUnits="userSpaceOnUse" x="0" y="0" width="252" height="77">
<path d="M251.047 0.0183086H0.790482V76.0998H251.047V0.0183086Z" fill="white"/>
</mask>
<g mask="url(#mask0_1_438)">
<mask id="mask1_1_438" style="mask-type:luminance" maskUnits="userSpaceOnUse" x="0" y="0" width="252" height="77">
<path d="M251.047 0.0183086H0.790482V76.0998H251.047V0.0183086Z" fill="white"/>
</mask>
<g mask="url(#mask1_1_438)">
<path d="M177.968 17.07C175.616 15.4245 174.44 13.3389 174.44 10.8103C174.44 7.94383 175.675 5.42911 178.146 3.26611C180.616 1.10311 184.195 0.0216059 188.882 0.0216059C193.095 0.0216059 196.315 0.844352 198.54 2.48984C200.764 4.13534 201.877 6.37581 201.877 9.20816C201.877 13.0259 199.906 15.8846 195.964 17.7842C199.044 19.4809 200.583 21.898 200.583 25.0371C200.583 28.5311 199.12 31.6656 196.193 34.439C193.265 37.2125 188.958 38.5992 183.274 38.5992C179.01 38.5992 175.803 37.6417 173.653 35.7235C171.505 33.8069 170.431 31.3216 170.431 28.2677C170.431 23.5171 172.942 19.7861 177.97 17.0715H177.968V17.07ZM184.518 32.2358C186.43 32.2358 187.915 31.506 188.972 30.048C190.029 28.5899 190.558 26.9011 190.558 24.9844C190.558 23.6101 190.173 22.5968 189.403 21.9429C188.634 21.289 187.699 20.9637 186.598 20.9637C184.567 20.9637 183.04 21.7229 182.016 23.2413C180.991 24.7598 180.48 26.3851 180.48 28.1158C180.48 29.3709 180.852 30.3718 181.595 31.1186C182.34 31.8654 183.312 32.2373 184.515 32.2373H184.518V32.2358ZM187.842 14.8295C189.043 14.8295 190.092 14.343 190.989 13.3668C191.885 12.3907 192.335 11.2085 192.335 9.81709C192.335 8.66431 192.014 7.76874 191.369 7.13193C190.726 6.49511 189.847 6.17748 188.729 6.17748C187.36 6.17748 186.229 6.65625 185.342 7.61535C184.455 8.57444 184.009 9.73961 184.009 11.114C184.009 12.3535 184.368 13.2816 185.088 13.9014C185.807 14.5211 186.725 14.8295 187.842 14.8295ZM143.297 17.07C140.944 15.4245 139.768 13.3389 139.768 10.8103C139.768 7.94383 141.003 5.42911 143.474 3.26611C145.944 1.10311 149.523 0.0216059 154.211 0.0216059C158.424 0.0216059 161.643 0.844352 163.869 2.48984C166.093 4.13534 167.205 6.37581 167.205 9.20816C167.205 13.0259 165.235 15.8846 161.292 17.7842C164.372 19.4809 165.912 21.898 165.912 25.0371C165.912 28.5311 164.448 31.6656 161.521 34.439C158.594 37.2125 154.287 38.5992 148.602 38.5992C144.338 38.5992 141.131 37.6417 138.982 35.7235C136.832 33.8069 135.759 31.3216 135.759 28.2677C135.759 23.5171 138.271 19.7861 143.298 17.0715H143.297V17.07ZM149.845 32.2358C151.757 32.2358 153.242 31.506 154.299 30.048C155.356 28.5899 155.885 26.9011 155.885 24.9844C155.885 23.6101 155.5 22.5968 154.73 21.9429C153.96 21.289 153.025 20.9637 151.925 20.9637C149.894 20.9637 148.367 21.7229 147.343 23.2413C146.318 24.7598 145.806 26.3851 145.806 28.1158C145.806 29.3709 146.179 30.3718 146.922 31.1186C147.667 31.8654 148.639 32.2373 149.842 32.2373H149.845V32.2358ZM153.171 14.8295C154.372 14.8295 155.421 14.343 156.317 13.3668C157.214 12.3907 157.663 11.2085 157.663 9.81709C157.663 8.66431 157.342 7.76874 156.699 7.13193C156.056 6.49511 155.177 6.17748 154.059 6.17748C152.689 6.17748 151.559 6.65625 150.672 7.61535C149.785 8.57444 149.339 9.73961 149.339 11.114C149.339 12.3535 149.698 13.2816 150.418 13.9014C151.137 14.5211 152.055 14.8295 153.172 14.8295H153.171ZM117.635 37.6045C115.452 38.2661 113.007 38.5977 110.299 38.5977C105.002 38.5977 100.861 37.2481 97.8747 34.5506C94.8872 31.8546 93.3943 28.0538 93.3943 23.1515C93.3943 20.6584 93.7529 18.2057 94.4731 15.7963C95.1917 13.3885 96.2875 11.1016 97.7603 8.93856C99.2316 6.77556 101.046 4.96893 103.205 3.51866C105.363 2.0684 107.478 1.1217 109.551 0.680112C111.623 0.240075 113.744 0.018507 115.909 0.018507C121.561 0.018507 125.718 1.52455 128.384 4.53509C131.05 7.54717 132.382 11.3092 132.382 15.8211C132.382 18.8921 131.726 22.0777 130.415 25.3764C129.103 28.6767 126.899 31.5974 123.803 34.1431C126.375 36.2968 128.041 37.5689 128.803 37.9593L124.539 43.9649C123.015 42.8617 120.714 40.7421 117.635 37.603V37.6045ZM116.849 27.3752C118.134 25.832 119.167 23.9014 119.944 21.585C120.723 19.2701 121.113 17.1707 121.113 15.2881C121.113 13.4056 120.521 11.6996 119.335 10.4276C118.15 9.15548 116.595 8.52022 114.665 8.52022C112.566 8.52022 110.759 9.28718 109.246 10.8227C107.732 12.3581 106.594 14.4111 105.832 16.9816C105.07 19.5506 104.69 21.7353 104.69 23.5342C104.69 25.3331 105.245 26.9398 106.353 28.2041C107.461 29.4685 109.032 30.1006 111.062 30.1006L112.333 30.0495C111.824 29.2686 111.059 28.4846 110.035 27.6959C109.011 26.9073 108.322 26.351 107.967 26.0287L110.657 22.2884C112.433 23.3575 114.498 25.0542 116.85 27.3783V27.3752H116.849ZM50.0928 23.1964V23.0337C50.1036 20.581 50.4637 18.167 51.1715 15.7963C51.8902 13.3885 52.9859 11.1016 54.4588 8.93856C55.9301 6.77556 57.7461 4.96893 59.9036 3.51866C62.0611 2.0684 64.1753 1.1217 66.2493 0.680112C68.3218 0.240075 70.4422 0.018507 72.6075 0.018507C78.2593 0.018507 82.4182 1.52455 85.0827 4.53509C87.7471 7.54717 89.0793 11.3092 89.0793 15.8211C89.0793 18.8921 88.424 22.0777 87.1119 25.3764C85.7998 28.6767 83.5959 31.5974 80.5003 34.1431C83.072 36.2968 84.7396 37.5689 85.4999 37.9593L81.2359 43.9649C79.7121 42.8617 77.4109 40.7421 74.3322 37.603C72.15 38.2646 69.7035 38.5961 66.9958 38.5961C61.6994 38.5961 57.5575 37.2466 54.5716 34.549C51.5935 31.8608 50.1005 28.0755 50.0912 23.1948H50.0928V23.1964ZM73.5471 27.3752C74.833 25.832 75.8654 23.9014 76.6427 21.585C77.4217 19.2701 77.8111 17.1707 77.8111 15.2881C77.8111 13.4056 77.2177 11.6996 76.0338 10.4276C74.8484 9.15548 73.2921 8.52022 71.3634 8.52022C69.2646 8.52022 67.4579 9.28718 65.9449 10.8227C64.4287 12.3581 63.2913 14.4111 62.5309 16.9816C61.769 19.5506 61.3888 21.7353 61.3888 23.5342C61.3888 25.3331 61.9421 26.9398 63.0517 28.2041C64.1598 29.4685 65.73 30.1006 67.7608 30.1006L69.0297 30.0495C68.5228 29.2686 67.7562 28.4846 66.7331 27.6959C65.7084 26.9073 65.0191 26.351 64.6652 26.0287L67.3544 22.2884C69.1317 23.3575 71.1964 25.0542 73.5487 27.3783V27.3752H73.5471Z" fill="#FED304"/>
<path d="M116.787 57.3178L114.01 70.3748H115.943C117.696 70.3748 119.139 69.8821 120.271 68.9013C121.591 67.7516 122.519 65.9047 123.06 63.3668C123.501 61.2704 123.352 59.7241 122.608 58.7247C121.921 57.7857 120.731 57.3178 119.048 57.3178H116.787ZM113.619 55.976H121.487C123.793 55.976 125.408 56.7368 126.327 58.2645C127.13 59.6032 127.309 61.3184 126.868 63.4148C126.32 65.9682 125.08 68.0026 123.147 69.5226C121.291 70.9884 119.146 71.7182 116.718 71.7182H110.281L113.617 55.9775H113.619V55.976ZM94.6867 75.8272L96.6541 71.5353C96.8272 71.1588 97.0034 70.7823 97.1842 70.3965C97.365 70.0153 97.5675 69.6435 97.8024 69.2809C98.0327 68.9199 98.2738 68.6611 98.5195 68.5C98.7683 68.3389 99.0867 68.2583 99.4746 68.2583C99.8625 68.2583 100.192 68.4039 100.437 68.6968C100.679 68.9896 100.764 69.3197 100.691 69.6884C100.629 69.9813 100.515 70.223 100.342 70.4197C99.5627 71.3122 98.7081 72.2698 97.7792 73.2815C96.6325 74.5273 95.7685 75.4693 95.1828 76.0999L94.6882 75.8272H94.6867ZM244.237 71.8514L247.597 55.976C247.786 55.976 248.066 56.0023 248.441 56.0488C248.814 56.0984 249.096 56.1216 249.282 56.1216C249.478 56.1216 249.773 56.0984 250.164 56.0488C250.56 56.0023 250.855 55.976 251.047 55.976L247.687 71.8514C247.495 71.8514 247.208 71.8282 246.835 71.7863C246.46 71.7399 246.176 71.7166 245.979 71.7166C245.783 71.7166 245.503 71.7399 245.109 71.7863C244.718 71.8282 244.426 71.8514 244.239 71.8514H244.237ZM224.838 57.6447L221.828 71.8514C221.647 71.8514 221.367 71.8282 220.992 71.7863C220.612 71.7399 220.332 71.7166 220.151 71.7166C219.952 71.7166 219.656 71.7399 219.265 71.7863C218.874 71.8282 218.579 71.8514 218.38 71.8514L221.391 57.6447C220.624 57.6447 219.876 57.6711 219.142 57.7222C218.405 57.7764 217.708 57.8523 217.04 57.9608C217.113 57.764 217.19 57.5611 217.258 57.3534C217.331 57.1412 217.372 57.0079 217.388 56.9459C217.419 56.8111 217.434 56.6577 217.442 56.4919C217.45 56.3231 217.453 56.1495 217.453 55.976H229.333C229.222 56.2998 229.103 56.6221 228.984 56.9459C228.953 57.104 228.934 57.276 228.929 57.4572C228.922 57.6416 228.919 57.8105 228.919 57.9608C228.152 57.8539 227.446 57.7764 226.797 57.7222C226.149 57.6726 225.497 57.6447 224.837 57.6447H224.838ZM205.191 57.6447L202.18 71.8514C201.999 71.8514 201.72 71.8282 201.344 71.7863C200.964 71.7399 200.684 71.7166 200.503 71.7166C200.304 71.7166 200.009 71.7399 199.618 71.7863C199.227 71.8282 198.931 71.8514 198.732 71.8514L201.743 57.6447C200.976 57.6447 200.228 57.6711 199.494 57.7222C198.757 57.7764 198.06 57.8523 197.392 57.9608C197.465 57.764 197.542 57.5611 197.61 57.3534C197.683 57.1412 197.724 57.0079 197.74 56.9459C197.771 56.8111 197.786 56.6577 197.794 56.4919C197.802 56.3231 197.805 56.1495 197.805 55.976H209.685C209.574 56.2998 209.455 56.6221 209.336 56.9459C209.305 57.104 209.286 57.276 209.282 57.4572C209.274 57.6416 209.271 57.8105 209.271 57.9608C208.504 57.8539 207.798 57.7764 207.149 57.7222C206.501 57.6726 205.849 57.6447 205.189 57.6447H205.191ZM191.321 51.0411C191.682 50.7188 191.947 50.5096 192.119 50.4213C192.38 50.2787 192.683 50.2059 193.017 50.2059C193.324 50.2059 193.55 50.3097 193.692 50.5096C193.834 50.7141 193.876 50.9512 193.814 51.2208C193.749 51.5431 193.558 51.8282 193.243 52.0792C193.1 52.183 192.794 52.3596 192.321 52.606L188.926 54.4978H187.634L191.32 51.0411H191.321ZM162.33 71.8514L165.69 55.976C165.894 55.976 166.181 56.0023 166.552 56.0488C166.927 56.0984 167.215 56.1216 167.419 56.1216C167.6 56.1216 167.887 56.0984 168.278 56.0488C168.674 56.0023 168.957 55.976 169.138 55.976L167.815 62.2527C168.226 62.2527 168.9 62.2682 169.836 62.3023C170.773 62.3364 171.275 62.3519 171.34 62.3519C171.723 62.3519 172.391 62.3364 173.343 62.3023C174.295 62.2682 174.8 62.2527 174.857 62.2527L176.185 55.976C176.389 55.976 176.676 56.0023 177.052 56.0488C177.424 56.0984 177.715 56.1216 177.914 56.1216C178.095 56.1216 178.383 56.0984 178.774 56.0488C179.169 56.0023 179.457 55.976 179.636 55.976L176.276 71.8514C176.095 71.8514 175.816 71.8282 175.443 71.7863C175.068 71.7399 174.791 71.7166 174.61 71.7166C174.406 71.7166 174.111 71.7399 173.717 71.7863C173.326 71.8282 173.026 71.8514 172.824 71.8514L174.465 64.1012C174.082 64.1012 173.505 64.0779 172.735 64.0315C171.964 63.985 171.385 63.9617 171.006 63.9617C170.6 63.9617 170.001 63.985 169.207 64.0315C168.413 64.0779 167.818 64.1012 167.419 64.1012L165.778 71.8514C165.597 71.8514 165.322 71.8282 164.945 71.7863C164.572 71.7399 164.297 71.7166 164.116 71.7166C163.912 71.7166 163.614 71.7399 163.223 71.7863C162.827 71.8282 162.532 71.8514 162.33 71.8514ZM155.528 57.2248L154.177 63.593C154.734 63.593 155.247 63.5465 155.72 63.4582C156.491 63.2536 157.115 62.8508 157.596 62.2512C158.015 61.7321 158.31 61.086 158.471 60.3128C158.667 59.3894 158.616 58.6441 158.321 58.0786C158.025 57.5099 157.57 57.2248 156.954 57.2248H155.528ZM153.897 64.8898L152.425 71.8514C152.244 71.8514 151.969 71.8282 151.596 71.7863C151.221 71.7399 150.944 71.7166 150.763 71.7166C150.559 71.7166 150.261 71.7399 149.87 71.7863C149.474 71.8282 149.179 71.8514 148.977 71.8514L152.337 55.976H157.999C161.283 55.976 162.648 57.2837 162.104 59.8991C161.69 61.822 160.735 63.1684 159.239 63.9416C158.007 64.5769 156.231 64.8914 153.899 64.8914H153.897V64.8898ZM136.916 50.6677H139.072L141.016 54.7364H139.724L137.645 52.4247L134.534 54.7364H133.284L136.917 50.6677H136.916ZM143.037 47.403H143.87C143.51 48.2645 143.122 48.9261 142.7 49.3832C142.149 49.9983 141.518 50.3097 140.813 50.3097C140.521 50.3097 140.262 50.2632 140.027 50.1718C139.977 50.1455 139.773 50.0293 139.421 49.8294C139.069 49.6295 138.807 49.4916 138.634 49.4064C138.305 49.2406 138.039 49.1601 137.837 49.1601C137.529 49.1601 137.273 49.2871 137.062 49.549C136.851 49.8062 136.726 50.0448 136.679 50.2648H135.859C136.024 49.4684 136.449 48.7603 137.129 48.1452C137.685 47.6494 138.276 47.403 138.905 47.403C139.257 47.403 139.634 47.5037 140.028 47.7067C140.313 47.8725 140.52 47.9871 140.646 48.0569C140.85 48.1917 141.042 48.2986 141.226 48.3838C141.41 48.4644 141.583 48.5062 141.748 48.5062C142.013 48.5062 142.255 48.3946 142.481 48.1684C142.623 48.0259 142.81 47.7687 143.04 47.403H143.037ZM131.598 55.976H142.186C142.116 56.1495 142.044 56.3494 141.968 56.5803C141.887 56.8111 141.846 56.9459 141.838 56.9924C141.785 57.3162 141.764 57.6401 141.768 57.9608C141.005 57.8833 140.042 57.8152 138.875 57.7454C137.708 57.6804 136.593 57.6447 135.519 57.6447H134.69L133.642 62.6246H137.328C138.05 62.6246 138.594 62.6137 138.962 62.5905C139.334 62.5673 139.925 62.5022 140.735 62.3984C140.543 62.7439 140.418 63.077 140.339 63.4132C140.308 63.5325 140.297 63.6859 140.297 63.8672C140.297 64.0485 140.3 64.2251 140.305 64.3832C139.917 64.3522 139.373 64.3135 138.679 64.2639C137.98 64.2143 137.421 64.1911 136.991 64.1911H133.305L132.058 70.0603C133.393 70.0603 134.709 70.0293 136.002 69.9642C137.299 69.9022 138.384 69.8263 139.263 69.7334C139.107 70.0541 138.987 70.3795 138.926 70.7017C138.895 70.8365 138.877 70.9977 138.869 71.1821C138.865 71.3664 138.858 71.5431 138.851 71.7166H128.262L131.599 55.976H131.598ZM89.2713 71.8514L92.6312 55.976C92.8197 55.976 93.0995 56.0023 93.475 56.0488C93.8475 56.0984 94.1303 56.1216 94.3158 56.1216C94.5121 56.1216 94.8073 56.0984 95.1983 56.0488C95.5939 56.0023 95.8891 55.976 96.0807 55.976L92.7208 71.8514C92.5292 71.8514 92.2417 71.8282 91.8693 71.7863C91.4937 71.7399 91.2094 71.7166 91.0131 71.7166C90.8168 71.7166 90.5371 71.7399 90.143 71.7863C89.752 71.8282 89.4599 71.8514 89.2729 71.8514H89.2713ZM82.6273 56.9444C81.2966 56.9444 80.1344 57.575 79.1406 58.8362C78.1469 60.0975 77.3803 62.0095 76.8425 64.5629C76.4824 66.2518 76.4778 67.6587 76.8317 68.7851C77.2505 70.0928 78.1206 70.7467 79.4358 70.7467C80.8329 70.7467 82.0709 69.9999 83.1574 68.5047C84.131 67.166 84.8419 65.4554 85.2824 63.3668C85.6502 61.6407 85.6502 60.1935 85.2824 59.0284C84.8528 57.6401 83.9703 56.9444 82.6273 56.9444ZM87.4492 57.4991C87.7212 57.4991 88.0596 57.3302 88.4738 56.9909C88.6392 56.8096 88.7505 56.5679 88.8108 56.2564C88.8525 56.0566 88.8757 55.8598 88.8757 55.68C88.8757 55.5003 88.8571 55.3578 88.8138 55.2602C88.7721 55.1672 88.6407 55.1145 88.4151 55.099C88.1926 55.0835 88.0736 55.0525 88.0658 55.006L88.361 53.6209C88.5295 53.6518 88.6608 53.6751 88.7412 53.6937C88.8262 53.7123 88.9483 53.72 89.1137 53.72C89.3022 53.72 89.5696 53.7045 89.9235 53.6704C90.2759 53.6364 90.4876 53.6209 90.5649 53.6209H91.2588L91.1367 53.9943L90.9327 54.9642C90.8446 55.3919 90.6916 55.8288 90.4799 56.275C90.2651 56.7213 90.0193 57.0792 89.7427 57.3519C89.466 57.6215 89.2126 57.8167 88.9916 57.936C88.6237 58.1405 88.2389 58.2397 87.8448 58.2397C88.225 59.0593 88.4507 59.9394 88.5233 60.8815C88.5959 61.8235 88.5264 62.7888 88.3162 63.7743C87.8294 66.1015 86.7506 68.0584 85.0784 69.6435C83.3181 71.3045 81.326 72.1319 79.0974 72.1319C76.8688 72.1319 75.3913 71.4052 74.4253 69.9518C73.4594 68.5016 73.2508 66.4749 73.8072 63.875C74.3063 61.5028 75.3727 59.5443 76.9986 58.0057C78.7203 56.3757 80.7433 55.5592 83.0677 55.5592C84.1078 55.5592 84.9903 55.7281 85.7074 56.0705C86.4292 56.4129 87.0072 56.8855 87.4492 57.4975V57.4991ZM55.2752 71.8514L58.6351 55.976C58.8391 55.976 59.1265 56.0023 59.4975 56.0488C59.873 56.0984 60.1605 56.1216 60.3645 56.1216C60.5453 56.1216 60.8328 56.0984 61.2238 56.0488C61.6194 56.0023 61.9022 55.976 62.0831 55.976L60.7601 62.2527C61.1712 62.2527 61.8451 62.2682 62.7816 62.3023C63.7182 62.3364 64.2205 62.3519 64.2854 62.3519C64.6687 62.3519 65.3363 62.3364 66.2883 62.3023C67.2404 62.2682 67.7457 62.2527 67.8029 62.2527L69.1305 55.976C69.3345 55.976 69.622 56.0023 69.9975 56.0488C70.37 56.0984 70.6605 56.1216 70.8599 56.1216C71.0407 56.1216 71.3282 56.0984 71.7192 56.0488C72.1148 56.0023 72.4023 55.976 72.5816 55.976L69.2217 71.8514C69.0409 71.8514 68.7611 71.8282 68.3887 71.7863C68.0131 71.7399 67.7365 71.7166 67.5556 71.7166C67.3516 71.7166 67.0564 71.7399 66.6624 71.7863C66.2713 71.8282 65.9715 71.8514 65.7691 71.8514L67.4104 64.1012C67.0271 64.1012 66.4506 64.0779 65.681 64.0315C64.9098 63.985 64.3302 63.9617 63.9516 63.9617C63.5451 63.9617 62.947 63.985 62.1526 64.0315C61.3582 64.0779 60.7632 64.1012 60.3645 64.1012L58.7232 71.8514C58.5424 71.8514 58.2673 71.8282 57.8902 71.7863C57.5177 71.7399 57.2426 71.7166 57.0618 71.7166C56.8578 71.7166 56.5595 71.7399 56.1685 71.7863C55.7728 71.8282 55.4776 71.8514 55.2752 71.8514ZM52.4902 68.9896L52.736 69.1353C52.229 69.7767 51.9153 70.4383 51.8148 71.1201C51.0699 71.4703 50.2956 71.7275 49.4858 71.8886C48.676 72.0497 47.8599 72.1303 47.0269 72.1303C44.5062 72.1303 42.6006 71.43 41.3071 70.0231C39.9563 68.5806 39.5344 66.6841 40.0336 64.3351C40.644 61.4734 42.0087 59.267 44.1384 57.7082C46.0795 56.2735 48.3808 55.5576 51.0514 55.5576C51.838 55.5576 52.6278 55.6615 53.4252 55.8737C54.2227 56.0813 54.9135 56.3664 55.5008 56.7197C55.0063 57.4216 54.6694 58.2041 54.4994 59.0733H54.1733C53.8657 58.4427 53.4067 57.9267 52.7962 57.5347C52.1858 57.1381 51.5227 56.9428 50.801 56.9428C49.0407 56.9428 47.5091 57.6959 46.2047 59.2081C45.0811 60.5158 44.3208 62.1148 43.922 64.0082C43.4893 66.0349 43.6191 67.6664 44.3208 68.8998C45.0224 70.13 46.2387 70.7451 47.9681 70.7451C48.693 70.7451 49.4611 70.584 50.2694 70.2602C51.0792 69.9363 51.8195 69.5133 52.4871 68.9865L52.4902 68.9896ZM27.4255 50.6677H29.5814L31.5257 54.7364H30.2336L28.155 52.4247L25.0439 54.7364H23.7936L27.427 50.6677H27.4255ZM33.5472 47.403H34.3802C34.0201 48.2645 33.6322 48.9261 33.2102 49.3832C32.6585 49.9983 32.0279 50.3097 31.3232 50.3097C31.0311 50.3097 30.7715 50.2632 30.5366 50.1718C30.4871 50.1455 30.2831 50.0293 29.9307 49.8294C29.5783 49.6295 29.3172 49.4916 29.1441 49.4064C28.8149 49.2406 28.5491 49.1601 28.3466 49.1601C28.039 49.1601 27.7825 49.2871 27.5723 49.549C27.3606 49.8062 27.2354 50.0448 27.189 50.2648H26.3684C26.5337 49.4684 26.9587 48.7603 27.6388 48.1452C28.1951 47.6494 28.7855 47.403 29.4145 47.403C29.7669 47.403 30.144 47.5037 30.5381 47.7067C30.8225 47.8725 31.0296 47.9871 31.1563 48.0569C31.3603 48.1917 31.5519 48.2986 31.7358 48.3838C31.9198 48.4644 32.0929 48.5062 32.2582 48.5062C32.5225 48.5062 32.7651 48.3946 32.9908 48.1684C33.133 48.0259 33.32 47.7687 33.5503 47.403H33.5472ZM32.3479 56.9924C32.3185 57.0373 32.2799 57.6354 32.2783 57.9608C31.5148 57.8833 30.552 57.8152 29.3852 57.7454C28.2183 57.6804 27.1025 57.6447 26.0284 57.6447H25.2L24.1521 62.6246H27.8381C28.5599 62.6246 29.1039 62.6137 29.4717 62.5905C29.8442 62.5673 30.4345 62.5022 31.2444 62.3984C31.096 62.7222 30.9399 63.0414 30.8487 63.4132C30.8178 63.5325 30.807 63.6859 30.807 63.8672C30.807 64.0485 30.8101 64.2251 30.8147 64.3832C30.4268 64.3522 29.8828 64.3135 29.1889 64.2639C28.4903 64.2143 27.9309 64.1911 27.5012 64.1911H23.8152L22.568 70.0603C23.9033 70.0603 25.2185 70.0293 26.5121 69.9642C27.8088 69.9022 28.8937 69.8263 29.7731 69.7334C29.6448 70.0463 29.5212 70.364 29.4362 70.7017C29.4053 70.8365 29.3867 70.9977 29.379 71.1821C29.3759 71.3664 29.3682 71.5431 29.3604 71.7166H18.7723L22.109 55.976H32.6971M7.29704 57.3178L4.51979 70.3748H6.4532C8.20578 70.3748 9.64927 69.8821 10.7806 68.9013C12.1004 67.7516 13.0293 65.9047 13.5702 63.3668C14.0106 61.2704 13.8623 59.7241 13.1173 58.7247C12.4311 57.7857 11.2411 57.3178 9.55809 57.3178H7.29704ZM4.12878 55.976H11.9969C14.3027 55.976 15.9178 56.7368 16.8373 58.2645C17.6394 59.6032 17.8187 61.3184 17.3783 63.4148C16.8296 65.9682 15.5901 68.0026 13.6567 69.5226C11.8006 70.9884 9.65545 71.7182 7.22749 71.7182H0.790527L4.12724 55.9775H4.12878V55.976Z" fill="#FED304"/>
<path d="M232.751 65.6358H236.944L236.058 60.2857L232.751 65.6358ZM237.188 67.0659H231.807C231.312 67.946 230.963 68.5704 230.764 68.9392C230.042 70.2159 229.516 71.1936 229.179 71.8661C229.037 71.8506 228.88 71.8351 228.711 71.8118C228.543 71.7886 228.351 71.7778 228.132 71.7778C227.951 71.7778 227.751 71.7886 227.526 71.8118C227.3 71.8351 227.127 71.8506 227.008 71.8661L236.99 55.8558C237.061 55.8837 237.21 55.9194 237.346 55.9364C237.482 55.9535 237.945 55.9535 237.945 55.9535C237.945 55.9535 238.242 55.9674 238.429 55.9364C238.551 55.9163 238.67 55.8822 238.737 55.8589L241.732 71.9126C241.424 71.9126 241.202 71.8506 241.036 71.8351C240.242 71.7623 239.819 71.7778 239.788 71.7778C239.48 71.7778 239.239 71.7855 239.058 71.801C238.233 71.8738 237.803 71.9126 237.766 71.9126C237.632 70.0362 237.44 68.4201 237.191 67.0659H237.188Z" fill="#FED304"/>
<path d="M235.547 50.4812C235.718 50.5695 235.984 50.7787 236.344 51.101H236.346L240.032 54.5578H238.74L235.344 52.6659C234.871 52.4195 234.565 52.2429 234.423 52.1391C234.108 51.8881 233.916 51.603 233.851 51.2807C233.789 51.0111 233.831 50.7741 233.973 50.5695C234.116 50.3697 234.341 50.2658 234.649 50.2658C234.983 50.2658 235.285 50.3387 235.547 50.4812Z" fill="#FED304"/>
<path d="M184.687 65.6359H188.88L187.995 60.2858L184.687 65.6359ZM189.124 67.066H183.743C183.248 67.9461 182.899 68.5705 182.7 68.9393C181.978 70.216 181.453 71.1937 181.116 71.8662C180.973 71.8507 180.816 71.8352 180.647 71.8119C180.479 71.7887 180.287 71.7779 180.068 71.7779C179.887 71.7779 179.688 71.7887 179.462 71.8119C179.236 71.8352 179.063 71.8507 178.944 71.8662L188.926 55.8559C188.998 55.8838 189.146 55.9195 189.282 55.9365C189.418 55.9536 189.882 55.9536 189.882 55.9536C189.882 55.9536 190.178 55.9675 190.365 55.9365C190.487 55.9164 190.606 55.8823 190.673 55.859L193.668 71.9127C193.361 71.9127 193.138 71.8507 192.973 71.8352C192.178 71.7624 191.755 71.7779 191.724 71.7779C191.416 71.7779 191.175 71.7856 190.994 71.8011C190.169 71.8739 189.739 71.9127 189.702 71.9127C189.568 70.0363 189.376 68.4202 189.127 67.066H189.124Z" fill="#FED304"/>
</g>
</g>
</svg>
