<svg width="41" height="41" viewBox="0 0 41 41" fill="none" xmlns="http://www.w3.org/2000/svg">
<path d="M1.10707 18.9191C1.19906 18.8731 1.2911 18.8294 1.3808 18.788C2.94011 18.0656 4.52012 17.3893 6.09784 16.7129C6.18293 16.7129 6.32549 16.614 6.40598 16.5818C6.52788 16.5288 6.64979 16.4782 6.77168 16.4253C7.00627 16.3241 7.24087 16.2252 7.47316 16.1239C7.94233 15.9238 8.40917 15.7237 8.87835 15.5235C9.81439 15.1232 10.7504 14.7229 11.6865 14.3203C13.5586 13.5197 15.433 12.7169 17.3051 11.9163C19.1772 11.1157 21.0516 10.3128 22.9237 9.51217C24.7958 8.71158 26.6702 7.9087 28.5423 7.10811C30.4144 6.30752 32.2888 5.50461 34.1609 4.70402C34.5772 4.52457 35.0279 4.25773 35.4741 4.17951C35.849 4.1128 36.2146 3.98396 36.5918 3.91264C37.3071 3.77691 38.0959 3.72169 38.7813 4.01846C39.0182 4.12198 39.2367 4.26692 39.4184 4.44866C40.2877 5.30907 40.1658 6.72161 39.9818 7.93169C38.7008 16.3655 37.4198 24.8016 36.1364 33.2354C35.9617 34.3926 35.7225 35.6625 34.8094 36.3941C34.0367 37.0129 32.9373 37.082 31.9829 36.8197C31.0284 36.5551 30.1867 36.0007 29.361 35.4555C25.9365 33.1871 22.5097 30.9188 19.0852 28.6505C18.2711 28.1121 17.3649 27.4082 17.3741 26.4304C17.3787 25.8415 17.7306 25.317 18.0893 24.8499C21.0654 20.9666 25.3592 18.298 28.5538 14.5941C29.0045 14.0719 29.3587 13.1286 28.7401 12.8273C28.3721 12.6478 27.9489 12.8917 27.6131 13.1241C23.3905 16.0573 19.1703 18.9927 14.9477 21.9259C13.5701 22.883 12.1258 23.8676 10.4653 24.1023C8.97957 24.3139 7.48467 23.8998 6.04725 23.4765C4.84211 23.1222 3.63924 22.7588 2.441 22.3838C1.80394 22.1859 1.14617 21.9719 0.653999 21.5233C0.161827 21.0747 -0.121019 20.3202 0.175664 19.722C0.361954 19.347 0.723041 19.1101 1.10252 18.9168L1.10707 18.9191Z" fill="#FED304"/>
</svg>
